<?xml version="1.0" standalone="no"?>
<!DOCTYPE svg PUBLIC "-//W3C//DTD SVG 20010904//EN"
 "http://www.w3.org/TR/2001/REC-SVG-20010904/DTD/svg10.dtd">
<svg version="1.0" xmlns="http://www.w3.org/2000/svg"
 width="900.000000pt" height="900.000000pt" viewBox="0 0 900.000000 900.000000"
 preserveAspectRatio="xMidYMid meet">
<metadata>
Created by potrace 1.14, written by Peter Selinger 2001-2017
</metadata>
<g transform="translate(0.000000,900.000000) scale(0.100000,-0.100000)"
fill="#000000" stroke="none">
<path d="M4419 8586 c-2 -2 -49 -6 -104 -10 -55 -4 -113 -8 -130 -10 -16 -2
-57 -7 -90 -11 -33 -3 -67 -8 -75 -10 -8 -2 -33 -7 -55 -10 -42 -6 -72 -11
-115 -20 -14 -3 -36 -7 -50 -10 -14 -3 -36 -7 -50 -10 -14 -3 -35 -7 -47 -10
-53 -10 -260 -68 -365 -102 -62 -20 -115 -38 -118 -38 -3 -1 -18 -7 -33 -13
-16 -7 -31 -12 -34 -12 -3 0 -19 -7 -36 -15 -18 -8 -54 -23 -82 -34 -119 -46
-384 -176 -487 -239 -35 -21 -71 -41 -78 -45 -8 -4 -28 -16 -45 -27 -16 -11
-43 -27 -60 -36 -16 -9 -32 -20 -35 -23 -3 -3 -25 -19 -50 -35 -43 -28 -269
-194 -280 -206 -3 -3 -30 -25 -60 -50 -30 -25 -68 -56 -84 -70 -47 -41 -318
-312 -361 -360 -82 -93 -140 -163 -149 -179 -5 -9 -14 -21 -20 -28 -6 -6 -20
-23 -31 -37 -11 -15 -26 -33 -33 -41 -20 -22 -217 -318 -234 -351 -8 -16 -37
-67 -64 -114 -83 -143 -259 -527 -280 -608 -2 -9 -22 -69 -44 -132 -22 -63
-42 -124 -44 -135 -3 -11 -19 -74 -36 -140 -17 -66 -33 -133 -36 -150 -3 -16
-9 -46 -14 -65 -5 -19 -11 -53 -15 -75 -3 -23 -7 -50 -9 -60 -2 -11 -7 -45
-11 -75 -4 -30 -9 -63 -11 -73 -3 -20 -13 -112 -21 -197 -15 -156 -7 -659 12
-802 3 -18 7 -57 10 -86 4 -29 8 -63 11 -75 2 -12 9 -51 15 -87 5 -36 14 -83
19 -105 5 -22 11 -53 14 -70 3 -16 8 -39 11 -50 4 -20 23 -95 30 -125 2 -8 11
-40 20 -70 9 -30 17 -62 19 -70 11 -44 50 -157 59 -168 5 -6 7 -12 3 -12 -5 0
10 -47 36 -110 6 -14 14 -34 18 -45 18 -46 84 -201 91 -215 4 -8 25 -51 46
-95 21 -44 40 -82 44 -85 3 -3 10 -16 14 -30 4 -14 19 -42 31 -62 13 -21 24
-42 24 -48 0 -5 3 -10 8 -10 4 0 18 -23 31 -50 14 -28 28 -50 32 -50 4 0 10
-11 13 -25 4 -14 11 -25 16 -25 6 0 10 -5 10 -10 0 -13 100 -164 112 -168 4
-2 8 -8 8 -13 0 -6 5 -15 10 -22 16 -19 93 -123 110 -147 8 -12 26 -35 40 -51
14 -15 39 -45 55 -65 58 -72 121 -140 255 -274 150 -149 178 -175 295 -270 44
-35 85 -69 92 -75 54 -45 223 -165 233 -165 6 0 10 -4 10 -10 0 -5 4 -10 9
-10 4 0 38 -19 74 -42 103 -66 147 -93 212 -128 33 -18 66 -37 73 -43 6 -5 12
-6 12 -2 0 5 8 2 18 -6 30 -25 322 -163 322 -153 0 3 12 -1 28 -10 180 -96
746 -247 1057 -282 33 -3 68 -8 77 -10 142 -26 716 -26 918 1 19 3 55 7 80 10
25 3 54 7 65 9 11 2 40 7 65 10 43 6 62 9 120 21 14 2 40 7 58 10 197 32 751
214 900 295 9 5 64 32 122 60 113 55 127 63 239 127 40 24 77 43 82 43 5 0 9
5 9 10 0 6 7 10 15 10 8 0 15 5 15 10 0 6 5 10 11 10 5 0 39 20 75 45 35 25
66 45 69 45 3 0 11 5 18 10 7 6 64 49 127 96 190 143 235 182 443 389 140 138
177 178 283 305 45 54 229 301 235 315 2 6 22 37 43 70 97 148 139 221 225
391 39 77 71 143 71 146 0 4 15 39 34 80 52 111 171 438 160 438 -3 0 0 9 5
19 10 19 67 229 77 285 3 16 7 32 9 36 2 4 6 20 9 36 9 50 16 88 21 114 2 13
7 42 10 65 3 22 8 51 10 65 10 56 17 107 20 140 1 19 6 78 11 130 16 180 11
602 -10 790 -11 96 -17 148 -22 175 -3 17 -9 53 -14 80 -4 28 -10 59 -13 70
-2 11 -8 40 -13 65 -4 25 -8 47 -9 50 -1 3 -4 19 -8 35 -4 17 -10 40 -12 53
-13 58 -42 166 -77 277 -17 55 -30 101 -30 102 1 2 -10 28 -23 58 -14 31 -25
60 -25 66 0 17 -133 324 -142 327 -4 2 -8 10 -8 18 0 28 -167 326 -274 489
-63 96 -219 310 -245 336 -9 8 -27 30 -41 48 -76 98 -333 362 -455 467 -33 29
-79 68 -101 88 -23 20 -45 36 -49 36 -4 0 -15 8 -24 18 -18 21 -197 150 -286
208 -33 21 -62 41 -65 44 -5 5 -31 21 -75 45 -11 6 -38 22 -60 36 -22 13 -51
30 -65 37 -14 7 -76 38 -137 71 -62 32 -115 56 -118 53 -3 -3 -5 0 -5 6 0 7
-4 12 -9 12 -5 0 -31 10 -58 22 -26 12 -50 22 -53 23 -3 1 -18 8 -35 15 -67
29 -185 73 -270 102 -49 16 -99 33 -110 38 -11 5 -38 13 -60 18 -22 5 -85 22
-140 36 -101 27 -260 62 -325 72 -19 3 -62 10 -95 16 -33 6 -76 12 -95 13 -49
4 -139 15 -175 21 -35 6 -580 15 -586 10z"/>
</g>
</svg>
